<mxfile host="app.diagrams.net" modified="2022-05-13T13:44:37.235Z" agent="5.0 (Windows NT 10.0; Win64; x64) AppleWebKit/537.36 (KHTML, like Gecko) Chrome/101.0.4951.54 Safari/537.36" etag="zxFSi-e9wcy899hVpSx2" version="18.0.3" type="github">
  <diagram name="Page-1" id="13e1069c-82ec-6db2-03f1-153e76fe0fe0">
    <mxGraphModel dx="988" dy="771" grid="1" gridSize="10" guides="1" tooltips="1" connect="1" arrows="1" fold="1" page="1" pageScale="1" pageWidth="1100" pageHeight="850" background="none" math="0" shadow="0">
      <root>
        <mxCell id="0" />
        <mxCell id="1" parent="0" />
        <mxCell id="7baba1c4bc27f4b0-11" value="1: Melakukan Pengiriman" style="html=1;verticalAlign=bottom;endArrow=block;labelBackgroundColor=none;fontFamily=Verdana;fontSize=12;edgeStyle=elbowEdgeStyle;elbow=vertical;" parent="1" source="7baba1c4bc27f4b0-9" target="YmDZe4y3oq84j2hbjNe3-3" edge="1">
          <mxGeometry relative="1" as="geometry">
            <mxPoint x="220" y="190" as="sourcePoint" />
            <mxPoint x="250" y="180" as="targetPoint" />
            <Array as="points">
              <mxPoint x="240" y="180" />
            </Array>
          </mxGeometry>
        </mxCell>
        <mxCell id="7baba1c4bc27f4b0-14" value="2: Memberikan nomor resi" style="html=1;verticalAlign=bottom;endArrow=block;labelBackgroundColor=none;fontFamily=Verdana;fontSize=12;edgeStyle=elbowEdgeStyle;elbow=vertical;" parent="1" target="YmDZe4y3oq84j2hbjNe3-2" edge="1">
          <mxGeometry x="-0.0031" relative="1" as="geometry">
            <mxPoint x="280" y="231" as="sourcePoint" />
            <mxPoint x="130" y="231" as="targetPoint" />
            <Array as="points" />
            <mxPoint as="offset" />
          </mxGeometry>
        </mxCell>
        <mxCell id="YmDZe4y3oq84j2hbjNe3-2" value="" style="shape=umlLifeline;participant=umlActor;perimeter=lifelinePerimeter;whiteSpace=wrap;html=1;container=1;collapsible=0;recursiveResize=0;verticalAlign=top;spacingTop=36;outlineConnect=0;size=80;" vertex="1" parent="1">
          <mxGeometry x="60" y="40" width="60" height="620" as="geometry" />
        </mxCell>
        <mxCell id="7baba1c4bc27f4b0-9" value="" style="html=1;points=[];perimeter=orthogonalPerimeter;rounded=0;shadow=0;comic=0;labelBackgroundColor=none;strokeWidth=1;fontFamily=Verdana;fontSize=12;align=center;" parent="YmDZe4y3oq84j2hbjNe3-2" vertex="1">
          <mxGeometry x="25" y="130" width="10" height="110" as="geometry" />
        </mxCell>
        <mxCell id="YmDZe4y3oq84j2hbjNe3-7" value="" style="html=1;points=[];perimeter=orthogonalPerimeter;rounded=0;shadow=0;comic=0;labelBackgroundColor=none;strokeWidth=1;fontFamily=Verdana;fontSize=12;align=center;" vertex="1" parent="YmDZe4y3oq84j2hbjNe3-2">
          <mxGeometry x="25" y="290" width="10" height="70" as="geometry" />
        </mxCell>
        <mxCell id="YmDZe4y3oq84j2hbjNe3-3" value="" style="shape=umlLifeline;participant=umlActor;perimeter=lifelinePerimeter;whiteSpace=wrap;html=1;container=1;collapsible=0;recursiveResize=0;verticalAlign=top;spacingTop=36;outlineConnect=0;size=80;" vertex="1" parent="1">
          <mxGeometry x="250" y="40" width="60" height="620" as="geometry" />
        </mxCell>
        <mxCell id="YmDZe4y3oq84j2hbjNe3-4" value="" style="html=1;points=[];perimeter=orthogonalPerimeter;rounded=0;shadow=0;comic=0;labelBackgroundColor=none;strokeWidth=1;fontFamily=Verdana;fontSize=12;align=center;" vertex="1" parent="YmDZe4y3oq84j2hbjNe3-3">
          <mxGeometry x="25" y="130" width="10" height="110" as="geometry" />
        </mxCell>
        <mxCell id="YmDZe4y3oq84j2hbjNe3-6" value="Controller" style="shape=umlLifeline;perimeter=lifelinePerimeter;whiteSpace=wrap;html=1;container=1;collapsible=0;recursiveResize=0;outlineConnect=0;size=50;fillColor=#FFFFC0;" vertex="1" parent="1">
          <mxGeometry x="390" y="70" width="140" height="590" as="geometry" />
        </mxCell>
        <mxCell id="7baba1c4bc27f4b0-13" value="" style="html=1;points=[];perimeter=orthogonalPerimeter;rounded=0;shadow=0;comic=0;labelBackgroundColor=none;strokeWidth=1;fontFamily=Verdana;fontSize=12;align=center;" parent="YmDZe4y3oq84j2hbjNe3-6" vertex="1">
          <mxGeometry x="65" y="260" width="10" height="70" as="geometry" />
        </mxCell>
        <mxCell id="YmDZe4y3oq84j2hbjNe3-11" value="" style="html=1;points=[];perimeter=orthogonalPerimeter;rounded=0;shadow=0;comic=0;labelBackgroundColor=none;strokeWidth=1;fontFamily=Verdana;fontSize=12;align=center;" vertex="1" parent="YmDZe4y3oq84j2hbjNe3-6">
          <mxGeometry x="65" y="370" width="10" height="70" as="geometry" />
        </mxCell>
        <mxCell id="YmDZe4y3oq84j2hbjNe3-12" value="4: Menampilkan status pengiriman" style="html=1;verticalAlign=bottom;endArrow=block;labelBackgroundColor=none;fontFamily=Verdana;fontSize=12;edgeStyle=elbowEdgeStyle;elbow=vertical;" edge="1" parent="YmDZe4y3oq84j2hbjNe3-6" target="YmDZe4y3oq84j2hbjNe3-10">
          <mxGeometry relative="1" as="geometry">
            <mxPoint x="65" y="370" as="sourcePoint" />
            <mxPoint x="415.33333333333337" y="370" as="targetPoint" />
            <Array as="points">
              <mxPoint x="195.83333333333337" y="370" />
              <mxPoint x="225.83333333333337" y="230" />
            </Array>
          </mxGeometry>
        </mxCell>
        <mxCell id="YmDZe4y3oq84j2hbjNe3-8" value="3: Mencetak nomor resi" style="html=1;verticalAlign=bottom;endArrow=block;labelBackgroundColor=none;fontFamily=Verdana;fontSize=12;edgeStyle=elbowEdgeStyle;elbow=vertical;" edge="1" parent="1" source="YmDZe4y3oq84j2hbjNe3-2" target="YmDZe4y3oq84j2hbjNe3-6">
          <mxGeometry relative="1" as="geometry">
            <mxPoint x="135" y="190" as="sourcePoint" />
            <mxPoint x="360" y="300" as="targetPoint" />
            <Array as="points">
              <mxPoint x="220" y="330" />
              <mxPoint x="250" y="190" />
            </Array>
          </mxGeometry>
        </mxCell>
        <mxCell id="YmDZe4y3oq84j2hbjNe3-9" value="Halaman Info Pengiriman" style="shape=umlLifeline;perimeter=lifelinePerimeter;whiteSpace=wrap;html=1;container=1;collapsible=0;recursiveResize=0;outlineConnect=0;size=50;fillColor=#FFFFC0;" vertex="1" parent="1">
          <mxGeometry x="600" y="70" width="140" height="590" as="geometry" />
        </mxCell>
        <mxCell id="YmDZe4y3oq84j2hbjNe3-10" value="" style="html=1;points=[];perimeter=orthogonalPerimeter;rounded=0;shadow=0;comic=0;labelBackgroundColor=none;strokeWidth=1;fontFamily=Verdana;fontSize=12;align=center;" vertex="1" parent="YmDZe4y3oq84j2hbjNe3-9">
          <mxGeometry x="65" y="370" width="10" height="70" as="geometry" />
        </mxCell>
        <mxCell id="YmDZe4y3oq84j2hbjNe3-13" value="Sequence Diagram" style="shape=umlFrame;whiteSpace=wrap;html=1;rounded=0;shadow=0;comic=0;labelBackgroundColor=none;strokeWidth=1;fontFamily=Verdana;fontSize=10;align=center;width=120;height=30;" vertex="1" parent="1">
          <mxGeometry width="800" height="680" as="geometry" />
        </mxCell>
        <mxCell id="YmDZe4y3oq84j2hbjNe3-14" value="Penjual" style="text;html=1;strokeColor=none;fillColor=none;align=center;verticalAlign=middle;whiteSpace=wrap;rounded=0;" vertex="1" parent="1">
          <mxGeometry x="60" y="110" width="60" height="30" as="geometry" />
        </mxCell>
        <mxCell id="YmDZe4y3oq84j2hbjNe3-15" value="Ekspedisi" style="text;html=1;strokeColor=none;fillColor=none;align=center;verticalAlign=middle;whiteSpace=wrap;rounded=0;" vertex="1" parent="1">
          <mxGeometry x="250" y="110" width="60" height="30" as="geometry" />
        </mxCell>
      </root>
    </mxGraphModel>
  </diagram>
</mxfile>
